<mxfile host="app.diagrams.net" agent="Mozilla/5.0 (Windows NT 10.0; Win64; x64) AppleWebKit/537.36 (KHTML, like Gecko) Chrome/136.0.0.0 Safari/537.36" version="27.0.9">
  <diagram name="Pagina-1" id="IlMWZXanw6Gb4K-qZ6Jn">
    <mxGraphModel dx="12870" dy="8475" grid="1" gridSize="10" guides="1" tooltips="1" connect="1" arrows="1" fold="1" page="1" pageScale="1" pageWidth="1700" pageHeight="1100" math="0" shadow="0">
      <root>
        <mxCell id="0" />
        <mxCell id="1" parent="0" />
        <mxCell id="iHYfi4qKzTKmzEHybDFV-1" value="&lt;font style=&quot;font-size: 32px;&quot;&gt;gestionale rifugio animali&lt;/font&gt;" style="rounded=0;whiteSpace=wrap;html=1;" parent="1" vertex="1">
          <mxGeometry x="-230" y="-4340" width="1020" height="300" as="geometry" />
        </mxCell>
        <mxCell id="G-FdDOP6K0q9_LhdYFq_-98" style="edgeStyle=orthogonalEdgeStyle;rounded=0;orthogonalLoop=1;jettySize=auto;html=1;exitX=0.5;exitY=0;exitDx=0;exitDy=0;entryX=0;entryY=0.5;entryDx=0;entryDy=0;fontFamily=Helvetica;fontSize=12;fontColor=default;" edge="1" parent="1" source="G-FdDOP6K0q9_LhdYFq_-1" target="iHYfi4qKzTKmzEHybDFV-1">
          <mxGeometry relative="1" as="geometry" />
        </mxCell>
        <mxCell id="G-FdDOP6K0q9_LhdYFq_-1" value="&lt;font style=&quot;font-size: 32px;&quot;&gt;database mysql&lt;/font&gt;&lt;div&gt;&lt;font style=&quot;font-size: 32px;&quot;&gt;(relazionale)&lt;/font&gt;&lt;/div&gt;" style="rounded=0;whiteSpace=wrap;html=1;" vertex="1" parent="1">
          <mxGeometry x="-940" y="-3740" width="280" height="180" as="geometry" />
        </mxCell>
        <mxCell id="G-FdDOP6K0q9_LhdYFq_-78" style="edgeStyle=orthogonalEdgeStyle;rounded=0;orthogonalLoop=1;jettySize=auto;html=1;exitX=0.5;exitY=0;exitDx=0;exitDy=0;entryX=0;entryY=0.5;entryDx=0;entryDy=0;fontFamily=Helvetica;fontSize=12;fontColor=default;" edge="1" parent="1" source="G-FdDOP6K0q9_LhdYFq_-3" target="G-FdDOP6K0q9_LhdYFq_-47">
          <mxGeometry relative="1" as="geometry" />
        </mxCell>
        <mxCell id="G-FdDOP6K0q9_LhdYFq_-3" value="&lt;font style=&quot;font-size: 34px;&quot;&gt;anagrafica degli animali&lt;/font&gt;" style="rounded=0;whiteSpace=wrap;html=1;strokeColor=default;align=center;verticalAlign=middle;fontFamily=Helvetica;fontSize=12;fontColor=default;fillColor=default;" vertex="1" parent="1">
          <mxGeometry x="-2885" y="-3010" width="300" height="130" as="geometry" />
        </mxCell>
        <mxCell id="G-FdDOP6K0q9_LhdYFq_-5" value="&lt;font style=&quot;font-size: 32px;&quot;&gt;gestione delle adozioni&lt;/font&gt;" style="rounded=0;whiteSpace=wrap;html=1;strokeColor=default;align=center;verticalAlign=middle;fontFamily=Helvetica;fontSize=12;fontColor=default;fillColor=default;" vertex="1" parent="1">
          <mxGeometry x="30" y="-3060" width="480" height="120" as="geometry" />
        </mxCell>
        <mxCell id="G-FdDOP6K0q9_LhdYFq_-79" style="edgeStyle=orthogonalEdgeStyle;rounded=0;orthogonalLoop=1;jettySize=auto;html=1;exitX=0.5;exitY=0;exitDx=0;exitDy=0;entryX=1;entryY=0.5;entryDx=0;entryDy=0;fontFamily=Helvetica;fontSize=12;fontColor=default;" edge="1" parent="1" source="G-FdDOP6K0q9_LhdYFq_-6" target="G-FdDOP6K0q9_LhdYFq_-47">
          <mxGeometry relative="1" as="geometry" />
        </mxCell>
        <mxCell id="G-FdDOP6K0q9_LhdYFq_-119" style="edgeStyle=orthogonalEdgeStyle;rounded=0;orthogonalLoop=1;jettySize=auto;html=1;exitX=1;exitY=0.5;exitDx=0;exitDy=0;fontFamily=Helvetica;fontSize=12;fontColor=default;" edge="1" parent="1" source="G-FdDOP6K0q9_LhdYFq_-6">
          <mxGeometry relative="1" as="geometry">
            <mxPoint x="-1220" y="-2936" as="targetPoint" />
          </mxGeometry>
        </mxCell>
        <mxCell id="G-FdDOP6K0q9_LhdYFq_-6" value="&lt;p class=&quot;MsoNormal&quot;&gt;&lt;span lang=&quot;it&quot;&gt;&lt;font style=&quot;font-size: 32px;&quot;&gt;Gestione delle visite veterinarie&lt;/font&gt;&lt;/span&gt;&lt;/p&gt;" style="rounded=0;whiteSpace=wrap;html=1;strokeColor=default;align=center;verticalAlign=middle;fontFamily=Helvetica;fontSize=12;fontColor=default;fillColor=default;" vertex="1" parent="1">
          <mxGeometry x="-1855" y="-3000" width="370" height="130" as="geometry" />
        </mxCell>
        <mxCell id="G-FdDOP6K0q9_LhdYFq_-7" value="&lt;p class=&quot;MsoNormal&quot;&gt;&lt;span style=&quot;background-color: transparent; color: light-dark(rgb(0, 0, 0), rgb(255, 255, 255));&quot;&gt;&lt;font style=&quot;font-size: 32px;&quot;&gt;Gestione delle donazioni&lt;/font&gt;&lt;/span&gt;&lt;/p&gt;" style="rounded=0;whiteSpace=wrap;html=1;strokeColor=default;align=center;verticalAlign=middle;fontFamily=Helvetica;fontSize=12;fontColor=default;fillColor=default;" vertex="1" parent="1">
          <mxGeometry x="-3940" y="-3320" width="310" height="130" as="geometry" />
        </mxCell>
        <mxCell id="G-FdDOP6K0q9_LhdYFq_-11" style="edgeStyle=orthogonalEdgeStyle;rounded=0;orthogonalLoop=1;jettySize=auto;html=1;exitX=0.5;exitY=0;exitDx=0;exitDy=0;fontFamily=Helvetica;fontSize=12;fontColor=default;" edge="1" parent="1" source="G-FdDOP6K0q9_LhdYFq_-9" target="G-FdDOP6K0q9_LhdYFq_-3">
          <mxGeometry relative="1" as="geometry" />
        </mxCell>
        <mxCell id="G-FdDOP6K0q9_LhdYFq_-54" style="edgeStyle=orthogonalEdgeStyle;rounded=0;orthogonalLoop=1;jettySize=auto;html=1;exitX=1;exitY=0.5;exitDx=0;exitDy=0;entryX=0;entryY=0.5;entryDx=0;entryDy=0;fontFamily=Helvetica;fontSize=12;fontColor=default;" edge="1" parent="1" source="G-FdDOP6K0q9_LhdYFq_-9" target="G-FdDOP6K0q9_LhdYFq_-12">
          <mxGeometry relative="1" as="geometry" />
        </mxCell>
        <mxCell id="G-FdDOP6K0q9_LhdYFq_-9" value="&lt;font style=&quot;font-size: 34px;&quot;&gt;dati degli animali&lt;/font&gt;" style="rounded=0;whiteSpace=wrap;html=1;strokeColor=default;align=center;verticalAlign=middle;fontFamily=Helvetica;fontSize=12;fontColor=default;fillColor=default;" vertex="1" parent="1">
          <mxGeometry x="-2895" y="-2520" width="320" height="130" as="geometry" />
        </mxCell>
        <mxCell id="G-FdDOP6K0q9_LhdYFq_-86" style="edgeStyle=orthogonalEdgeStyle;rounded=0;orthogonalLoop=1;jettySize=auto;html=1;exitX=0.5;exitY=0;exitDx=0;exitDy=0;entryX=0.5;entryY=1;entryDx=0;entryDy=0;fontFamily=Helvetica;fontSize=12;fontColor=default;" edge="1" parent="1" source="G-FdDOP6K0q9_LhdYFq_-12" target="G-FdDOP6K0q9_LhdYFq_-6">
          <mxGeometry relative="1" as="geometry" />
        </mxCell>
        <mxCell id="G-FdDOP6K0q9_LhdYFq_-12" value="&lt;font style=&quot;font-size: 33px;&quot;&gt;stato di salute/visite&lt;/font&gt;" style="rounded=0;whiteSpace=wrap;html=1;strokeColor=default;align=center;verticalAlign=middle;fontFamily=Helvetica;fontSize=12;fontColor=default;fillColor=default;" vertex="1" parent="1">
          <mxGeometry x="-1880" y="-2545" width="420" height="180" as="geometry" />
        </mxCell>
        <mxCell id="G-FdDOP6K0q9_LhdYFq_-47" value="&lt;font style=&quot;font-size: 33px;&quot;&gt;tabelle animali&lt;/font&gt;" style="rounded=0;whiteSpace=wrap;html=1;strokeColor=default;align=center;verticalAlign=middle;fontFamily=Helvetica;fontSize=12;fontColor=default;fillColor=default;" vertex="1" parent="1">
          <mxGeometry x="-2415" y="-3370" width="350" height="170" as="geometry" />
        </mxCell>
        <mxCell id="G-FdDOP6K0q9_LhdYFq_-87" style="edgeStyle=orthogonalEdgeStyle;rounded=0;orthogonalLoop=1;jettySize=auto;html=1;exitX=0.5;exitY=0;exitDx=0;exitDy=0;entryX=0.5;entryY=1;entryDx=0;entryDy=0;fontFamily=Helvetica;fontSize=12;fontColor=default;" edge="1" parent="1" source="G-FdDOP6K0q9_LhdYFq_-72" target="G-FdDOP6K0q9_LhdYFq_-9">
          <mxGeometry relative="1" as="geometry" />
        </mxCell>
        <mxCell id="G-FdDOP6K0q9_LhdYFq_-72" value="&lt;font style=&quot;font-size: 33px;&quot;&gt;generali&lt;/font&gt;" style="swimlane;fontStyle=0;childLayout=stackLayout;horizontal=1;startSize=30;horizontalStack=0;resizeParent=1;resizeParentMax=0;resizeLast=0;collapsible=1;marginBottom=0;whiteSpace=wrap;html=1;rounded=0;strokeColor=default;align=center;verticalAlign=middle;fontFamily=Helvetica;fontSize=12;fontColor=default;fillColor=default;" vertex="1" parent="1">
          <mxGeometry x="-3140" y="-2150" width="810" height="630" as="geometry" />
        </mxCell>
        <mxCell id="G-FdDOP6K0q9_LhdYFq_-73" value="&lt;span style=&quot;font-size: 32px;&quot;&gt;ID animale&amp;nbsp; (PK)&lt;/span&gt;" style="text;strokeColor=none;fillColor=none;align=left;verticalAlign=middle;spacingLeft=4;spacingRight=4;overflow=hidden;points=[[0,0.5],[1,0.5]];portConstraint=eastwest;rotatable=0;whiteSpace=wrap;html=1;fontFamily=Helvetica;fontSize=12;fontColor=default;" vertex="1" parent="G-FdDOP6K0q9_LhdYFq_-72">
          <mxGeometry y="30" width="810" height="60" as="geometry" />
        </mxCell>
        <mxCell id="G-FdDOP6K0q9_LhdYFq_-74" value="&lt;span style=&quot;font-size: 33px;&quot;&gt;nome&lt;/span&gt;" style="text;strokeColor=none;fillColor=none;align=left;verticalAlign=middle;spacingLeft=4;spacingRight=4;overflow=hidden;points=[[0,0.5],[1,0.5]];portConstraint=eastwest;rotatable=0;whiteSpace=wrap;html=1;fontFamily=Helvetica;fontSize=12;fontColor=default;" vertex="1" parent="G-FdDOP6K0q9_LhdYFq_-72">
          <mxGeometry y="90" width="810" height="60" as="geometry" />
        </mxCell>
        <mxCell id="G-FdDOP6K0q9_LhdYFq_-77" value="&lt;font style=&quot;font-size: 32px;&quot;&gt;razza/incrocio&lt;/font&gt;" style="text;strokeColor=none;fillColor=none;align=left;verticalAlign=middle;spacingLeft=4;spacingRight=4;overflow=hidden;points=[[0,0.5],[1,0.5]];portConstraint=eastwest;rotatable=0;whiteSpace=wrap;html=1;fontFamily=Helvetica;fontSize=12;fontColor=default;" vertex="1" parent="G-FdDOP6K0q9_LhdYFq_-72">
          <mxGeometry y="150" width="810" height="70" as="geometry" />
        </mxCell>
        <mxCell id="G-FdDOP6K0q9_LhdYFq_-75" value="&lt;font style=&quot;font-size: 33px;&quot;&gt;sesso&lt;/font&gt;" style="text;strokeColor=none;fillColor=none;align=left;verticalAlign=middle;spacingLeft=4;spacingRight=4;overflow=hidden;points=[[0,0.5],[1,0.5]];portConstraint=eastwest;rotatable=0;whiteSpace=wrap;html=1;fontFamily=Helvetica;fontSize=12;fontColor=default;" vertex="1" parent="G-FdDOP6K0q9_LhdYFq_-72">
          <mxGeometry y="220" width="810" height="60" as="geometry" />
        </mxCell>
        <mxCell id="G-FdDOP6K0q9_LhdYFq_-81" value="&lt;font style=&quot;font-size: 33px;&quot;&gt;età&lt;/font&gt;" style="text;strokeColor=none;fillColor=none;align=left;verticalAlign=middle;spacingLeft=4;spacingRight=4;overflow=hidden;points=[[0,0.5],[1,0.5]];portConstraint=eastwest;rotatable=0;whiteSpace=wrap;html=1;fontFamily=Helvetica;fontSize=12;fontColor=default;" vertex="1" parent="G-FdDOP6K0q9_LhdYFq_-72">
          <mxGeometry y="280" width="810" height="100" as="geometry" />
        </mxCell>
        <mxCell id="G-FdDOP6K0q9_LhdYFq_-117" value="&lt;font style=&quot;font-size: 33px;&quot;&gt;taglia&lt;/font&gt;" style="text;strokeColor=none;fillColor=none;align=left;verticalAlign=middle;spacingLeft=4;spacingRight=4;overflow=hidden;points=[[0,0.5],[1,0.5]];portConstraint=eastwest;rotatable=0;whiteSpace=wrap;html=1;fontFamily=Helvetica;fontSize=12;fontColor=default;" vertex="1" parent="G-FdDOP6K0q9_LhdYFq_-72">
          <mxGeometry y="380" width="810" height="100" as="geometry" />
        </mxCell>
        <mxCell id="G-FdDOP6K0q9_LhdYFq_-82" value="&lt;font style=&quot;font-size: 33px;&quot;&gt;descrizione (storia animale/comportamento)&lt;/font&gt;" style="text;strokeColor=none;fillColor=none;align=left;verticalAlign=middle;spacingLeft=4;spacingRight=4;overflow=hidden;points=[[0,0.5],[1,0.5]];portConstraint=eastwest;rotatable=0;whiteSpace=wrap;html=1;fontFamily=Helvetica;fontSize=12;fontColor=default;" vertex="1" parent="G-FdDOP6K0q9_LhdYFq_-72">
          <mxGeometry y="480" width="810" height="150" as="geometry" />
        </mxCell>
        <mxCell id="G-FdDOP6K0q9_LhdYFq_-80" style="edgeStyle=orthogonalEdgeStyle;rounded=0;orthogonalLoop=1;jettySize=auto;html=1;exitX=0.5;exitY=0;exitDx=0;exitDy=0;entryX=0;entryY=0.389;entryDx=0;entryDy=0;entryPerimeter=0;fontFamily=Helvetica;fontSize=12;fontColor=default;" edge="1" parent="1" source="G-FdDOP6K0q9_LhdYFq_-47" target="G-FdDOP6K0q9_LhdYFq_-1">
          <mxGeometry relative="1" as="geometry" />
        </mxCell>
        <mxCell id="G-FdDOP6K0q9_LhdYFq_-96" style="edgeStyle=orthogonalEdgeStyle;rounded=0;orthogonalLoop=1;jettySize=auto;html=1;exitX=0.5;exitY=0;exitDx=0;exitDy=0;fontFamily=Helvetica;fontSize=12;fontColor=default;" edge="1" parent="1" source="G-FdDOP6K0q9_LhdYFq_-88" target="G-FdDOP6K0q9_LhdYFq_-12">
          <mxGeometry relative="1" as="geometry" />
        </mxCell>
        <mxCell id="G-FdDOP6K0q9_LhdYFq_-88" value="&lt;span style=&quot;font-size: 33px;&quot;&gt;stato&lt;/span&gt;" style="swimlane;fontStyle=0;childLayout=stackLayout;horizontal=1;startSize=30;horizontalStack=0;resizeParent=1;resizeParentMax=0;resizeLast=0;collapsible=1;marginBottom=0;whiteSpace=wrap;html=1;rounded=0;strokeColor=default;align=center;verticalAlign=middle;fontFamily=Helvetica;fontSize=12;fontColor=default;fillColor=default;" vertex="1" parent="1">
          <mxGeometry x="-2075" y="-2210" width="810" height="440" as="geometry" />
        </mxCell>
        <mxCell id="G-FdDOP6K0q9_LhdYFq_-89" value="&lt;span style=&quot;font-size: 32px;&quot;&gt;ID visitia&amp;nbsp; (PK)&lt;/span&gt;" style="text;strokeColor=none;fillColor=none;align=left;verticalAlign=middle;spacingLeft=4;spacingRight=4;overflow=hidden;points=[[0,0.5],[1,0.5]];portConstraint=eastwest;rotatable=0;whiteSpace=wrap;html=1;fontFamily=Helvetica;fontSize=12;fontColor=default;" vertex="1" parent="G-FdDOP6K0q9_LhdYFq_-88">
          <mxGeometry y="30" width="810" height="60" as="geometry" />
        </mxCell>
        <mxCell id="G-FdDOP6K0q9_LhdYFq_-95" value="&lt;font style=&quot;font-size: 33px;&quot;&gt;id animale (FK)&lt;/font&gt;" style="text;strokeColor=none;fillColor=none;align=left;verticalAlign=middle;spacingLeft=4;spacingRight=4;overflow=hidden;points=[[0,0.5],[1,0.5]];portConstraint=eastwest;rotatable=0;whiteSpace=wrap;html=1;fontFamily=Helvetica;fontSize=12;fontColor=default;" vertex="1" parent="G-FdDOP6K0q9_LhdYFq_-88">
          <mxGeometry y="90" width="810" height="60" as="geometry" />
        </mxCell>
        <mxCell id="G-FdDOP6K0q9_LhdYFq_-90" value="&lt;span style=&quot;font-size: 33px;&quot;&gt;vaccini&lt;/span&gt;" style="text;strokeColor=none;fillColor=none;align=left;verticalAlign=middle;spacingLeft=4;spacingRight=4;overflow=hidden;points=[[0,0.5],[1,0.5]];portConstraint=eastwest;rotatable=0;whiteSpace=wrap;html=1;fontFamily=Helvetica;fontSize=12;fontColor=default;" vertex="1" parent="G-FdDOP6K0q9_LhdYFq_-88">
          <mxGeometry y="150" width="810" height="60" as="geometry" />
        </mxCell>
        <mxCell id="G-FdDOP6K0q9_LhdYFq_-91" value="&lt;span style=&quot;font-size: 32px;&quot;&gt;visite (datamotivazione)&lt;/span&gt;" style="text;strokeColor=none;fillColor=none;align=left;verticalAlign=middle;spacingLeft=4;spacingRight=4;overflow=hidden;points=[[0,0.5],[1,0.5]];portConstraint=eastwest;rotatable=0;whiteSpace=wrap;html=1;fontFamily=Helvetica;fontSize=12;fontColor=default;" vertex="1" parent="G-FdDOP6K0q9_LhdYFq_-88">
          <mxGeometry y="210" width="810" height="70" as="geometry" />
        </mxCell>
        <mxCell id="G-FdDOP6K0q9_LhdYFq_-92" value="&lt;span style=&quot;font-size: 33px;&quot;&gt;eventuali malattie&lt;/span&gt;" style="text;strokeColor=none;fillColor=none;align=left;verticalAlign=middle;spacingLeft=4;spacingRight=4;overflow=hidden;points=[[0,0.5],[1,0.5]];portConstraint=eastwest;rotatable=0;whiteSpace=wrap;html=1;fontFamily=Helvetica;fontSize=12;fontColor=default;" vertex="1" parent="G-FdDOP6K0q9_LhdYFq_-88">
          <mxGeometry y="280" width="810" height="60" as="geometry" />
        </mxCell>
        <mxCell id="G-FdDOP6K0q9_LhdYFq_-93" value="&lt;span style=&quot;font-size: 33px;&quot;&gt;micro cip&lt;/span&gt;" style="text;strokeColor=none;fillColor=none;align=left;verticalAlign=middle;spacingLeft=4;spacingRight=4;overflow=hidden;points=[[0,0.5],[1,0.5]];portConstraint=eastwest;rotatable=0;whiteSpace=wrap;html=1;fontFamily=Helvetica;fontSize=12;fontColor=default;" vertex="1" parent="G-FdDOP6K0q9_LhdYFq_-88">
          <mxGeometry y="340" width="810" height="100" as="geometry" />
        </mxCell>
        <mxCell id="G-FdDOP6K0q9_LhdYFq_-97" style="edgeStyle=orthogonalEdgeStyle;rounded=0;orthogonalLoop=1;jettySize=auto;html=1;exitX=1;exitY=0.5;exitDx=0;exitDy=0;fontFamily=Helvetica;fontSize=12;fontColor=default;fillColor=#000000;" edge="1" parent="1" source="G-FdDOP6K0q9_LhdYFq_-73" target="G-FdDOP6K0q9_LhdYFq_-95">
          <mxGeometry relative="1" as="geometry" />
        </mxCell>
        <mxCell id="G-FdDOP6K0q9_LhdYFq_-100" style="edgeStyle=orthogonalEdgeStyle;rounded=0;orthogonalLoop=1;jettySize=auto;html=1;exitX=0;exitY=0.5;exitDx=0;exitDy=0;entryX=0.5;entryY=0;entryDx=0;entryDy=0;fontFamily=Helvetica;fontSize=12;fontColor=default;" edge="1" parent="1" source="G-FdDOP6K0q9_LhdYFq_-99" target="G-FdDOP6K0q9_LhdYFq_-6">
          <mxGeometry relative="1" as="geometry" />
        </mxCell>
        <mxCell id="G-FdDOP6K0q9_LhdYFq_-118" style="edgeStyle=orthogonalEdgeStyle;rounded=0;orthogonalLoop=1;jettySize=auto;html=1;exitX=0.5;exitY=1;exitDx=0;exitDy=0;entryX=0.5;entryY=0;entryDx=0;entryDy=0;fontFamily=Helvetica;fontSize=12;fontColor=default;" edge="1" parent="1" source="G-FdDOP6K0q9_LhdYFq_-99" target="G-FdDOP6K0q9_LhdYFq_-103">
          <mxGeometry relative="1" as="geometry" />
        </mxCell>
        <mxCell id="G-FdDOP6K0q9_LhdYFq_-99" value="&lt;font style=&quot;font-size: 38px;&quot;&gt;tabelle visite&amp;nbsp;&lt;/font&gt;" style="rounded=0;whiteSpace=wrap;html=1;strokeColor=default;align=center;verticalAlign=middle;fontFamily=Helvetica;fontSize=12;fontColor=default;fillColor=default;" vertex="1" parent="1">
          <mxGeometry x="-1390" y="-3370" width="365" height="170" as="geometry" />
        </mxCell>
        <mxCell id="G-FdDOP6K0q9_LhdYFq_-103" value="&lt;span style=&quot;font-size: 33px;&quot;&gt;medici&lt;/span&gt;" style="swimlane;fontStyle=0;childLayout=stackLayout;horizontal=1;startSize=30;horizontalStack=0;resizeParent=1;resizeParentMax=0;resizeLast=0;collapsible=1;marginBottom=0;whiteSpace=wrap;html=1;rounded=0;strokeColor=default;align=center;verticalAlign=middle;fontFamily=Helvetica;fontSize=12;fontColor=default;fillColor=default;" vertex="1" parent="1">
          <mxGeometry x="-1040" y="-2230" width="810" height="400" as="geometry" />
        </mxCell>
        <mxCell id="G-FdDOP6K0q9_LhdYFq_-110" value="&lt;font style=&quot;font-size: 33px;&quot;&gt;ID medico (PK)&lt;/font&gt;" style="text;strokeColor=none;fillColor=none;align=left;verticalAlign=middle;spacingLeft=4;spacingRight=4;overflow=hidden;points=[[0,0.5],[1,0.5]];portConstraint=eastwest;rotatable=0;whiteSpace=wrap;html=1;fontFamily=Helvetica;fontSize=12;fontColor=default;" vertex="1" parent="G-FdDOP6K0q9_LhdYFq_-103">
          <mxGeometry y="30" width="810" height="60" as="geometry" />
        </mxCell>
        <mxCell id="G-FdDOP6K0q9_LhdYFq_-111" value="&lt;font style=&quot;font-size: 32px;&quot;&gt;ID visita (FK)&lt;/font&gt;" style="text;strokeColor=none;fillColor=none;align=left;verticalAlign=middle;spacingLeft=4;spacingRight=4;overflow=hidden;points=[[0,0.5],[1,0.5]];portConstraint=eastwest;rotatable=0;whiteSpace=wrap;html=1;fontFamily=Helvetica;fontSize=12;fontColor=default;" vertex="1" parent="G-FdDOP6K0q9_LhdYFq_-103">
          <mxGeometry y="90" width="810" height="60" as="geometry" />
        </mxCell>
        <mxCell id="G-FdDOP6K0q9_LhdYFq_-104" value="&lt;span style=&quot;font-size: 32px;&quot;&gt;ID animale&amp;nbsp; (FK)&lt;/span&gt;" style="text;strokeColor=none;fillColor=none;align=left;verticalAlign=middle;spacingLeft=4;spacingRight=4;overflow=hidden;points=[[0,0.5],[1,0.5]];portConstraint=eastwest;rotatable=0;whiteSpace=wrap;html=1;fontFamily=Helvetica;fontSize=12;fontColor=default;" vertex="1" parent="G-FdDOP6K0q9_LhdYFq_-103">
          <mxGeometry y="150" width="810" height="60" as="geometry" />
        </mxCell>
        <mxCell id="G-FdDOP6K0q9_LhdYFq_-105" value="&lt;span style=&quot;font-size: 33px;&quot;&gt;nome&lt;/span&gt;" style="text;strokeColor=none;fillColor=none;align=left;verticalAlign=middle;spacingLeft=4;spacingRight=4;overflow=hidden;points=[[0,0.5],[1,0.5]];portConstraint=eastwest;rotatable=0;whiteSpace=wrap;html=1;fontFamily=Helvetica;fontSize=12;fontColor=default;" vertex="1" parent="G-FdDOP6K0q9_LhdYFq_-103">
          <mxGeometry y="210" width="810" height="60" as="geometry" />
        </mxCell>
        <mxCell id="G-FdDOP6K0q9_LhdYFq_-106" value="&lt;span style=&quot;font-size: 32px;&quot;&gt;cognome&lt;/span&gt;" style="text;strokeColor=none;fillColor=none;align=left;verticalAlign=middle;spacingLeft=4;spacingRight=4;overflow=hidden;points=[[0,0.5],[1,0.5]];portConstraint=eastwest;rotatable=0;whiteSpace=wrap;html=1;fontFamily=Helvetica;fontSize=12;fontColor=default;" vertex="1" parent="G-FdDOP6K0q9_LhdYFq_-103">
          <mxGeometry y="270" width="810" height="70" as="geometry" />
        </mxCell>
        <mxCell id="G-FdDOP6K0q9_LhdYFq_-107" value="&lt;span style=&quot;font-size: 33px;&quot;&gt;specializzazione&lt;/span&gt;" style="text;strokeColor=none;fillColor=none;align=left;verticalAlign=middle;spacingLeft=4;spacingRight=4;overflow=hidden;points=[[0,0.5],[1,0.5]];portConstraint=eastwest;rotatable=0;whiteSpace=wrap;html=1;fontFamily=Helvetica;fontSize=12;fontColor=default;" vertex="1" parent="G-FdDOP6K0q9_LhdYFq_-103">
          <mxGeometry y="340" width="810" height="60" as="geometry" />
        </mxCell>
        <mxCell id="G-FdDOP6K0q9_LhdYFq_-114" style="edgeStyle=orthogonalEdgeStyle;rounded=0;orthogonalLoop=1;jettySize=auto;html=1;exitX=1;exitY=0.5;exitDx=0;exitDy=0;entryX=0;entryY=0.5;entryDx=0;entryDy=0;fontFamily=Helvetica;fontSize=12;fontColor=default;" edge="1" parent="1" source="G-FdDOP6K0q9_LhdYFq_-73" target="G-FdDOP6K0q9_LhdYFq_-104">
          <mxGeometry relative="1" as="geometry">
            <Array as="points">
              <mxPoint x="-2230" y="-2090" />
              <mxPoint x="-2230" y="-1520" />
              <mxPoint x="-1170" y="-1520" />
              <mxPoint x="-1170" y="-2050" />
            </Array>
          </mxGeometry>
        </mxCell>
        <mxCell id="G-FdDOP6K0q9_LhdYFq_-115" style="edgeStyle=orthogonalEdgeStyle;rounded=0;orthogonalLoop=1;jettySize=auto;html=1;exitX=1;exitY=0.5;exitDx=0;exitDy=0;entryX=0;entryY=0.5;entryDx=0;entryDy=0;fontFamily=Helvetica;fontSize=12;fontColor=default;" edge="1" parent="1" source="G-FdDOP6K0q9_LhdYFq_-89" target="G-FdDOP6K0q9_LhdYFq_-111">
          <mxGeometry relative="1" as="geometry" />
        </mxCell>
      </root>
    </mxGraphModel>
  </diagram>
</mxfile>
